# xmcd CD database file
#
# Track frame offsets:
#	150
#	14985
#	27933
#	44220
#	65145
#	89940
#	101988
#	111555
#	128793
#	140550
#	154245
#
# Disc length: 2184 seconds
#
# Revision: 5
# Processed by: cddbd v1.5.1PL2 Copyright (c) Steve Scherf et al.
# Submitted via: CDex 1.51
#
DISCID=b808860b
DTITLE=Charlie Brown - Portrait Of A Glad Man
DYEAR=1900
DGENRE=Country
TTITLE0=Portrait Of A Glad Man
TTITLE1=Lady M
TTITLE2=Lucinda
TTITLE3=Games
TTITLE4=I'll Never Understand
TTITLE5=Swimmin' Hole
TTITLE6=Please
TTITLE7=Worthless
TTITLE8=Don't You
TTITLE9=I've Gotta Learn To Feel
TTITLE10=Home Swamp Home
EXTD=
EXTT0=
EXTT1=
EXTT2=
EXTT3=
EXTT4=
EXTT5=
EXTT6=
EXTT7=
EXTT8=
EXTT9=
EXTT10=
PLAYORDER=
